<svg width="32" height="32" viewBox="0 0 32 32" fill="none" xmlns="http://www.w3.org/2000/svg">
<path d="M0 16C0 11.561 0 9.32504 0.612837 7.55279C1.73913 4.30642 4.2733 1.7557 7.51967 0.612837C9.30848 0 11.5114 0 15.9338 0C20.3561 0 22.5756 0 24.3478 0.612837C27.5777 1.73913 30.1284 4.28986 31.2546 7.55279C31.8675 9.3416 31.8675 11.561 31.8675 16C31.8675 20.439 31.8675 22.675 31.2546 24.4472C30.1284 27.6936 27.5942 30.2443 24.3478 31.3872C22.559 32 20.3561 32 15.9338 32C11.5114 32 9.29192 32 7.51967 31.3872C4.28986 30.2609 1.73913 27.7102 0.612837 24.4472C0 22.675 0 20.4555 0 16Z" fill="white"/>
<path d="M12.7093 12.7312H8.8252V24.1448H12.7093V12.7312Z" fill="black"/>
<path d="M17.5561 7.27979H14.4937V11.091H17.4651C20.1814 11.091 22.0597 13.0239 22.0597 15.6856C22.0597 18.3473 20.1814 20.3349 17.4651 20.3349H14.4937V24.146H17.5561C22.3694 24.146 25.9968 20.4624 25.9968 15.6691C25.9968 10.8756 22.3694 7.2831 17.5561 7.2831V7.27979Z" fill="black"/>
<path d="M12.7093 7.27979H8.8252V11.091H12.7093V7.27979Z" fill="black"/>
</svg>
