<svg width="32" height="32" viewBox="0 0 32 32" fill="none" xmlns="http://www.w3.org/2000/svg">
<path d="M15.9607 0C11.0246 0 6.61404 2.24733 3.6853 5.77536C4.2179 8.42868 4.97793 10.7969 5.94916 12.8198C5.62309 13.6724 5.38174 14.5425 5.25642 15.3603L4.49175 19.5246C3.0239 17.7367 1.59201 15.3742 0.443256 12.2603C0.156649 13.4595 0 14.7112 0 16C0 20.0305 1.4899 23.7098 3.94289 26.5224L5.09862 20.2306L5.9712 15.4801C6.07099 14.8309 6.24852 14.1481 6.48408 13.47C6.51541 13.3793 6.54558 13.2897 6.57923 13.1989C6.62216 13.0826 6.66857 12.9675 6.71499 12.8523C6.74632 12.7733 6.77881 12.6941 6.81246 12.615C6.86235 12.4976 6.91457 12.3801 6.96795 12.2638C7.00624 12.18 7.04685 12.0951 7.08746 12.0113C7.14085 11.902 7.19422 11.7938 7.24991 11.6868C7.30909 11.5728 7.37292 11.4589 7.43789 11.3448C7.48198 11.2669 7.52376 11.1878 7.56786 11.1122C9.08676 8.54265 11.7487 6.17432 16.0141 6.17432C16.0199 6.17432 16.0246 6.17432 16.0304 6.17432C20.0266 6.18012 23.5333 8.59262 24.9628 12.3208C26.4202 16.1198 25.3921 20.2341 22.2789 23.0596C19.3721 25.6965 14.7818 26.1945 10.5848 24.3263C10.4165 24.2519 10.2366 24.1658 10.0499 24.0727L10.9782 19.0197C11.4818 19.3571 12.0039 19.6514 12.5481 19.8932C14.9976 20.9844 17.5434 20.8146 19.0322 19.464C20.6521 17.9937 21.1812 15.9744 20.4467 14.0633C19.8839 12.5976 18.4265 11.0296 16.0234 11.0261C16.021 11.0261 16.0176 11.0261 16.0141 11.0261C11.7057 11.0261 10.8319 15.7208 10.746 16.2571L10.7344 16.3269L10.3283 18.5521L9.37917 23.7156L8.22578 29.9958C10.5175 31.2718 13.1539 32 15.9619 32C24.7772 32 31.9226 24.837 31.9226 16C31.9214 7.16311 24.7759 0 15.9607 0Z" fill="white"/>
</svg>
